<svg width="28" height="28" viewBox="0 0 28 28" fill="none" xmlns="http://www.w3.org/2000/svg">
<path d="M12.6666 9.99999H15.3333V7.33332H12.6666V9.99999ZM14 24.6667C8.11996 24.6667 3.33329 19.88 3.33329 14C3.33329 8.11999 8.11996 3.33332 14 3.33332C19.88 3.33332 24.6666 8.11999 24.6666 14C24.6666 19.88 19.88 24.6667 14 24.6667ZM14 0.666656C12.249 0.666656 10.5152 1.01153 8.89751 1.6816C7.27984 2.35166 5.80998 3.33378 4.57187 4.5719C2.07138 7.07238 0.666626 10.4638 0.666626 14C0.666626 17.5362 2.07138 20.9276 4.57187 23.4281C5.80998 24.6662 7.27984 25.6483 8.89751 26.3184C10.5152 26.9884 12.249 27.3333 14 27.3333C17.5362 27.3333 20.9276 25.9286 23.428 23.4281C25.9285 20.9276 27.3333 17.5362 27.3333 14C27.3333 12.249 26.9884 10.5152 26.3184 8.89754C25.6483 7.27987 24.6662 5.81001 23.428 4.5719C22.1899 3.33378 20.7201 2.35166 19.1024 1.6816C17.4847 1.01153 15.7509 0.666656 14 0.666656ZM12.6666 20.6667H15.3333V12.6667H12.6666V20.6667Z" fill="white"/>
</svg>
