<svg width="166" height="42" viewBox="0 0 166 42" fill="none" xmlns="http://www.w3.org/2000/svg">
<g clip-path="url(#clip0_0_14)">
<path d="M30.5944 21.0313C30.5944 18.2005 30.6343 15.3672 30.557 12.5364C30.542 12.0291 30.1578 11.3214 29.7336 11.0652C23.6211 7.38724 17.4786 3.75746 11.3161 0.163182C10.9469 -0.0524237 10.2558 -0.0600333 9.88905 0.150499C6.84275 1.88042 3.8239 3.66107 0.83748 5.49752C0.438293 5.74357 0.0366111 6.38277 0.0366111 6.84442C-0.00829745 16.2271 -0.00829745 25.6097 0.0366111 34.9924C0.039106 35.4591 0.405859 36.1135 0.800057 36.357C3.78398 38.196 6.82778 39.9336 9.82418 41.7523C10.4205 42.115 10.8321 42.0617 11.3985 41.7244C17.4886 38.0895 23.5887 34.4724 29.7062 30.8807C30.3723 30.49 30.6268 30.0487 30.6143 29.275C30.5719 26.5254 30.5944 23.7784 30.5944 21.0313ZM25.2528 26.4392C25.2478 26.8121 24.9609 27.3422 24.649 27.5299C20.1781 30.2237 15.6872 32.8845 11.1764 35.5098C10.8671 35.6899 10.2907 35.6671 9.9639 35.4921C8.67402 34.8098 7.4565 33.9854 6.16912 33.3005C5.47554 32.9302 5.28093 32.4508 5.28592 31.6898C5.32085 28.0955 5.30089 24.4987 5.30089 20.9045C5.30339 20.9045 5.30339 20.9045 5.30588 20.9045C5.30588 17.3102 5.27345 13.7134 5.34331 10.1191C5.35328 9.61686 5.74748 8.95229 6.16413 8.65805C7.3592 7.82099 8.6366 7.09554 9.93146 6.42336C10.2882 6.23819 10.9145 6.22805 11.2563 6.4259C15.7371 9.01824 20.1956 11.6512 24.634 14.3196C24.9484 14.5073 25.2428 15.0298 25.2478 15.4002C25.2952 19.0807 25.2977 22.7612 25.2528 26.4392Z" fill="white"/>
<path d="M15.9676 15.4019C17.3049 16.1933 18.4525 16.8502 19.5727 17.5554C19.7798 17.6847 19.9819 18.0094 19.9869 18.2479C20.0218 20.0209 20.0218 21.7965 19.9919 23.572C19.9869 23.8206 19.8222 24.1707 19.6251 24.295C18.475 25.0204 17.2924 25.6926 15.9651 26.4764C15.9676 22.7248 15.9676 19.1965 15.9676 15.4019Z" fill="white"/>
</g>
<path d="M54.5558 11.7761C55.8119 11.7761 56.9799 12.0185 58.1038 12.4812C59.2277 12.9439 60.1753 13.6049 60.9906 14.4422C61.806 15.2795 62.4671 16.249 62.9299 17.3507C63.3927 18.4524 63.6351 19.6422 63.6351 20.8982C63.6351 22.1761 63.3927 23.3439 62.9299 24.4456C62.4671 25.5473 61.806 26.5168 60.9906 27.3541C60.1753 28.1914 59.2056 28.8304 58.1038 29.3151C57.0019 29.7999 55.8119 30.0202 54.5558 30.0202H47.7023V11.7761H54.5558ZM54.5558 26.9795C55.3932 26.9795 56.1645 26.8253 56.9138 26.4948C57.663 26.1643 58.2801 25.7456 58.831 25.1948C59.3819 24.6439 59.8227 24.0049 60.1312 23.2558C60.4397 22.5287 60.616 21.7354 60.616 20.8982C60.616 20.0609 60.4617 19.2676 60.1312 18.5405C59.8227 17.7914 59.3819 17.1524 58.831 16.6236C58.2801 16.0948 57.641 15.6321 56.9138 15.3236C56.1865 15.0151 55.3712 14.8388 54.5558 14.8388H50.7434V27.0015L54.5558 26.9795Z" fill="white"/>
<path d="M69.3426 24.7096C69.585 25.4588 70.0257 26.0537 70.6428 26.5384C71.2598 27.0232 71.987 27.2435 72.8245 27.2435C73.3754 27.2435 73.8822 27.1333 74.345 26.913C74.8078 26.6927 75.2045 26.4062 75.5571 26.0316L78.0913 27.7283C77.4743 28.5215 76.703 29.1384 75.7995 29.6011C74.8959 30.0638 73.9043 30.2842 72.8245 30.2842C71.8989 30.2842 71.0395 30.1079 70.2241 29.7554C69.4087 29.4028 68.6815 28.9181 68.0865 28.3232C67.4915 27.7283 67.0067 27.0011 66.6541 26.1859C66.3015 25.3706 66.1031 24.4893 66.1031 23.5638C66.1031 22.6384 66.2794 21.7791 66.632 20.9638C66.9846 20.1486 67.4694 19.4215 68.0644 18.8266C68.6594 18.2316 69.3867 17.7469 70.202 17.3944C71.0174 17.0418 71.8989 16.8435 72.8245 16.8435C73.75 16.8435 74.6315 17.0198 75.4469 17.3723C76.2622 17.7249 76.9674 18.2096 77.5845 18.8045C78.2015 19.4215 78.6643 20.1266 79.0169 20.9418C79.3695 21.7571 79.5458 22.6384 79.5458 23.5418C79.5458 23.7401 79.5458 23.9164 79.5237 24.1147C79.5017 24.291 79.4797 24.4893 79.4356 24.6876H69.3426V24.7096ZM76.2622 22.3079C76.0198 21.6028 75.5791 21.0299 74.9621 20.5672C74.345 20.1045 73.6178 19.8842 72.8245 19.8842C72.0311 19.8842 71.3259 20.1045 70.6869 20.5672C70.0698 21.0079 69.607 21.6028 69.3426 22.3079H76.2622Z" fill="white"/>
<path d="M91.1813 22.6609C91.1813 22.2643 91.1152 21.9117 90.9609 21.5812C90.8067 21.2507 90.6084 20.9422 90.3659 20.6999C90.1235 20.4354 89.815 20.2371 89.4845 20.1049C89.1539 19.9727 88.7793 19.8846 88.3826 19.8846C87.9859 19.8846 87.6333 19.9507 87.3028 20.1049C86.9722 20.2371 86.6858 20.4354 86.4213 20.6999C86.1789 20.9643 85.9806 21.2507 85.8263 21.5812C85.672 21.9117 85.6059 22.2863 85.6059 22.6609V30.0202H82.5648V11.7761H85.6059V17.7473C86.3552 17.1524 87.2808 16.8439 88.3826 16.8439C89.198 16.8439 89.9472 16.9982 90.6524 17.3066C91.3576 17.6151 91.9747 18.0338 92.5035 18.5626C93.0324 19.0914 93.4511 19.7083 93.7597 20.4134C94.0682 21.1185 94.2224 21.8676 94.2224 22.6609V30.0202H91.1813V22.6609Z" fill="white"/>
<path d="M100.767 11.7761V14.8168H97.7263V11.7761H100.767ZM97.7704 17.0863H100.789L100.767 30.0202H97.7263L97.7704 17.0863Z" fill="white"/>
<path d="M110.618 30.2846C109.693 30.2846 108.833 30.1083 108.018 29.7558C107.202 29.4032 106.475 28.9185 105.88 28.3236C105.285 27.7287 104.8 27.0015 104.448 26.1863C104.095 25.371 103.897 24.4897 103.897 23.5643C103.897 22.6388 104.073 21.7575 104.426 20.9422C104.778 20.127 105.263 19.4219 105.858 18.8049C106.453 18.188 107.18 17.7253 107.996 17.3727C108.811 17.0202 109.693 16.8439 110.596 16.8439C111.367 16.8439 112.073 16.9761 112.668 17.2185C113.285 17.4609 113.814 17.8134 114.276 18.2541V11.7761H117.317V30.0202H114.276V28.8744C113.814 29.3151 113.285 29.6676 112.668 29.91C112.073 30.1524 111.389 30.2846 110.618 30.2846ZM110.618 19.8846C110.111 19.8846 109.626 19.9727 109.186 20.171C108.745 20.3693 108.348 20.6337 108.018 20.9422C107.687 21.2727 107.423 21.6473 107.246 22.11C107.07 22.5727 106.96 23.0354 106.96 23.5422C106.96 24.027 107.048 24.5117 107.246 24.9524C107.445 25.3931 107.709 25.7897 108.018 26.1202C108.348 26.4507 108.723 26.7151 109.186 26.9134C109.626 27.1117 110.111 27.1999 110.618 27.1999C111.125 27.1999 111.61 27.1117 112.051 26.9134C112.491 26.7151 112.888 26.4507 113.219 26.1202C113.549 25.7897 113.814 25.4371 113.99 24.9744C114.188 24.5337 114.276 24.049 114.276 23.5643C114.276 23.0575 114.188 22.5727 113.99 22.1321C113.792 21.6914 113.527 21.2948 113.219 20.9643C112.91 20.6338 112.513 20.3693 112.051 20.1931C111.588 20.0168 111.125 19.8846 110.618 19.8846Z" fill="white"/>
<path d="M127.19 30.2846C126.265 30.2846 125.405 30.1083 124.59 29.7558C123.774 29.4032 123.047 28.9185 122.452 28.3236C121.857 27.7287 121.372 27.0015 121.02 26.1863C120.667 25.371 120.491 24.4897 120.491 23.5863C120.491 22.6609 120.667 21.7795 121.02 20.9643C121.372 20.149 121.857 19.4439 122.452 18.827C123.047 18.21 123.774 17.7473 124.59 17.3948C125.405 17.0422 126.287 16.866 127.19 16.866C127.961 16.866 128.667 16.9982 129.262 17.2405C129.879 17.4829 130.408 17.8354 130.87 18.2761V11.7761H133.911V30.0202H130.87V28.8744C130.408 29.3151 129.879 29.6676 129.262 29.91C128.667 30.1524 127.961 30.2846 127.19 30.2846ZM127.19 19.8846C126.683 19.8846 126.198 19.9727 125.758 20.171C125.317 20.3693 124.92 20.6337 124.59 20.9422C124.259 21.2727 123.995 21.6473 123.818 22.11C123.642 22.5727 123.51 23.0575 123.51 23.5643C123.51 24.049 123.598 24.5337 123.796 24.9744C123.995 25.4151 124.259 25.8117 124.568 26.1422C124.898 26.4727 125.273 26.7371 125.736 26.9354C126.176 27.1338 126.661 27.2219 127.168 27.2219C127.675 27.2219 128.16 27.1338 128.6 26.9354C129.041 26.7371 129.438 26.4727 129.768 26.1422C130.099 25.8117 130.363 25.4151 130.54 24.9744C130.738 24.5337 130.826 24.049 130.826 23.5643C130.826 23.0575 130.738 22.5727 130.54 22.1321C130.341 21.6914 130.077 21.2948 129.768 20.9643C129.46 20.6338 129.063 20.3693 128.6 20.1931C128.138 20.0168 127.697 19.8846 127.19 19.8846Z" fill="white"/>
<path d="M140.28 24.7096C140.523 25.4588 140.963 26.0537 141.58 26.5384C142.197 27.0232 142.925 27.2435 143.762 27.2435C144.313 27.2435 144.82 27.1333 145.283 26.913C145.745 26.6927 146.142 26.4062 146.495 26.0316L149.029 27.7283C148.412 28.5215 147.641 29.1384 146.737 29.6011C145.834 30.0638 144.842 30.2842 143.784 30.2842C142.859 30.2842 141.999 30.1079 141.184 29.7554C140.368 29.4028 139.641 28.9181 139.046 28.3232C138.451 27.7283 137.966 27.0011 137.614 26.1859C137.261 25.3706 137.085 24.4893 137.085 23.5859C137.085 22.6605 137.261 21.8011 137.614 20.9859C137.966 20.1706 138.451 19.4435 139.046 18.8486C139.641 18.2537 140.368 17.7689 141.184 17.4164C141.999 17.0638 142.859 16.8435 143.784 16.8435C144.71 16.8435 145.591 17.0198 146.407 17.3723C147.222 17.7249 147.927 18.2096 148.544 18.8045C149.161 19.4215 149.624 20.1266 149.977 20.9418C150.329 21.7571 150.505 22.6384 150.505 23.5418C150.505 23.7401 150.505 23.9164 150.483 24.1147C150.461 24.291 150.439 24.4893 150.395 24.6876H140.28V24.7096ZM147.222 22.3079C146.979 21.6028 146.539 21.0299 145.922 20.5672C145.305 20.1045 144.577 19.8842 143.784 19.8842C142.991 19.8842 142.286 20.1045 141.647 20.5672C141.029 21.0079 140.567 21.6028 140.302 22.3079H147.222Z" fill="white"/>
<path d="M162.119 22.661C162.119 22.2644 162.053 21.9119 161.898 21.5813C161.744 21.2508 161.546 20.9424 161.303 20.7C161.061 20.4356 160.753 20.2373 160.422 20.1051C160.091 19.9729 159.717 19.8847 159.32 19.8847C158.923 19.8847 158.571 19.9508 158.24 20.1051C157.91 20.2373 157.623 20.4356 157.359 20.7C157.116 20.9644 156.918 21.2508 156.764 21.5813C156.61 21.9119 156.543 22.2864 156.543 22.661V30.0203H153.502V17.0864H156.543V18.1C156.896 17.7034 157.315 17.4169 157.778 17.1966C158.24 16.9763 158.769 16.8661 159.32 16.8661C160.135 16.8661 160.885 17.0203 161.59 17.3288C162.295 17.6373 162.912 18.0559 163.441 18.5847C163.97 19.1135 164.389 19.7305 164.697 20.4356C165.006 21.1407 165.16 21.8898 165.16 22.683V30.0424H162.119V22.661Z" fill="white"/>
<defs>
<clipPath id="clip0_0_14">
<rect width="30.6102" height="42" fill="white"/>
</clipPath>
</defs>
</svg>
