<svg width="24" height="24" viewBox="0 0 24 24" fill="none" xmlns="http://www.w3.org/2000/svg">
<mask id="mask0_0_197" style="mask-type:alpha" maskUnits="userSpaceOnUse" x="0" y="0" width="24" height="24">
<rect width="24" height="24" fill="#C4C4C4"/>
</mask>
<g mask="url(#mask0_0_197)">
<path d="M11.6056 20.2157C10.4058 20.2157 9.20611 20.2173 8.00638 20.2157C5.23355 20.2116 3.12869 18.2389 2.93585 15.4775C2.91205 15.1402 3.01627 15.0196 3.3642 15.0245C4.57706 15.041 5.79074 15.0368 7.0036 15.027C7.31871 15.0245 7.48037 15.0672 7.50007 15.4603C7.5411 16.2825 8.19512 16.8537 9.02065 16.866C9.62052 16.875 10.2204 16.8611 10.8202 16.8709C11.0311 16.8742 11.1272 16.8028 11.1025 16.5894C11.1009 16.5763 11.1034 16.5624 11.1025 16.5484C11.0861 16.1283 11.2724 15.5883 11.0336 15.3191C10.7874 15.0418 10.236 15.2535 9.8191 15.2281C9.60164 15.2149 9.38336 15.2264 9.16508 15.2248C8.87212 15.2231 8.83519 15.0984 8.99193 14.8719C9.42603 14.2441 9.79941 13.5811 10.1465 12.9008C10.7374 11.7446 10.7382 10.5448 10.4633 9.31803C10.1629 7.98127 9.6476 6.72492 9.01655 5.5137C8.955 5.39553 8.8114 5.25439 8.89018 5.14771C8.99603 5.00328 9.16672 5.1436 9.30212 5.17725C9.77725 5.29542 10.2524 5.41687 10.721 5.55883C11 5.64335 11.1288 5.60068 11.1066 5.27654C11.091 5.04759 11.0984 4.81208 11.1329 4.58477C11.2002 4.1359 11.5522 3.85033 11.9806 3.86756C12.3975 3.88397 12.7495 4.2155 12.7741 4.65534C12.7963 5.04923 12.7856 5.44559 12.7782 5.84112C12.7749 6.01919 12.8414 6.10454 12.9924 6.22188C14.3292 7.25339 15.5338 8.40552 16.2551 9.97534C16.7196 10.9855 16.6318 11.9587 16.0697 12.9024C15.5847 13.7165 14.9668 14.4189 14.2848 15.073C14.0461 15.3019 13.7744 15.1993 13.5135 15.2256C13.4191 15.2354 13.3206 15.2395 13.2279 15.2248C12.8767 15.169 12.7257 15.2896 12.7766 15.6638C12.8291 16.0503 12.6108 16.5533 12.8668 16.8012C13.1007 17.0276 13.5964 16.8315 13.9722 16.8717C14.7329 16.9546 15.336 16.6682 15.8104 16.0987C16.1911 15.6408 16.6646 15.3848 17.2407 15.2346C18.3986 14.9335 19.5466 14.5904 20.693 14.245C20.9966 14.1531 21.0951 14.1965 21.118 14.5346C21.1558 15.0713 21.068 15.4439 20.4813 15.6605C19.6344 15.9723 19.1404 16.6937 18.6981 17.4453C18.3386 18.055 17.9612 18.6557 17.4975 19.194C16.9272 19.8555 16.2322 20.2387 15.3262 20.2231C14.0871 20.1993 12.8455 20.2157 11.6056 20.2157Z" fill="white"/>
<path d="M6.10845 13.4097C5.52336 13.4097 4.93827 13.4073 4.35317 13.4105C4.07088 13.4122 3.91169 13.3662 4.11848 13.0437C5.35924 11.1104 6.59261 9.1721 7.83009 7.23629C7.92528 7.08776 8.0615 6.92446 8.17474 7.1928C8.72373 8.49756 9.27928 9.81135 9.10531 11.2745C9.01669 12.0196 8.59243 12.6408 8.2248 13.2751C8.13207 13.4352 7.97041 13.4073 7.82352 13.4081C7.25156 13.4105 6.68042 13.4097 6.10845 13.4097Z" fill="white"/>
</g>
</svg>
