<svg width="1158" height="668" viewBox="0 0 1158 668" fill="none" xmlns="http://www.w3.org/2000/svg">
<g filter="url(#filter0_f_0_5)">
<path fill-rule="evenodd" clip-rule="evenodd" d="M710.091 -268.048C771.613 -266.268 837.111 -283.335 889.396 -250.863C943.171 -217.465 969.848 -155.038 989.129 -94.7464C1008.33 -34.6961 1015.44 28.878 998.254 89.5368C980.597 151.859 943.252 206.693 892.371 246.785C839.985 288.063 776.145 325.826 710.091 316.596C646.261 307.677 616.923 233.282 561.413 200.538C496.273 162.114 392.609 177.816 359.531 109.809C327.103 43.1414 385.41 -32.0206 415.297 -99.8652C442.054 -160.605 465.433 -228.571 523.085 -261.462C578.62 -293.145 646.179 -269.897 710.091 -268.048Z" fill="#FFBC57"/>
<path fill-rule="evenodd" clip-rule="evenodd" d="M710.091 -268.048C771.613 -266.268 837.111 -283.335 889.396 -250.863C943.171 -217.465 969.848 -155.038 989.129 -94.7464C1008.33 -34.6961 1015.44 28.878 998.254 89.5368C980.597 151.859 943.252 206.693 892.371 246.785C839.985 288.063 776.145 325.826 710.091 316.596C646.261 307.677 616.923 233.282 561.413 200.538C496.273 162.114 392.609 177.816 359.531 109.809C327.103 43.1414 385.41 -32.0206 415.297 -99.8652C442.054 -160.605 465.433 -228.571 523.085 -261.462C578.62 -293.145 646.179 -269.897 710.091 -268.048Z" fill="url(#paint0_radial_0_5)"/>
<path fill-rule="evenodd" clip-rule="evenodd" d="M710.091 -268.048C771.613 -266.268 837.111 -283.335 889.396 -250.863C943.171 -217.465 969.848 -155.038 989.129 -94.7464C1008.33 -34.6961 1015.44 28.878 998.254 89.5368C980.597 151.859 943.252 206.693 892.371 246.785C839.985 288.063 776.145 325.826 710.091 316.596C646.261 307.677 616.923 233.282 561.413 200.538C496.273 162.114 392.609 177.816 359.531 109.809C327.103 43.1414 385.41 -32.0206 415.297 -99.8652C442.054 -160.605 465.433 -228.571 523.085 -261.462C578.62 -293.145 646.179 -269.897 710.091 -268.048Z" fill="url(#paint1_linear_0_5)"/>
<path fill-rule="evenodd" clip-rule="evenodd" d="M710.091 -268.048C771.613 -266.268 837.111 -283.335 889.396 -250.863C943.171 -217.465 969.848 -155.038 989.129 -94.7464C1008.33 -34.6961 1015.44 28.878 998.254 89.5368C980.597 151.859 943.252 206.693 892.371 246.785C839.985 288.063 776.145 325.826 710.091 316.596C646.261 307.677 616.923 233.282 561.413 200.538C496.273 162.114 392.609 177.816 359.531 109.809C327.103 43.1414 385.41 -32.0206 415.297 -99.8652C442.054 -160.605 465.433 -228.571 523.085 -261.462C578.62 -293.145 646.179 -269.897 710.091 -268.048Z" fill="url(#paint2_linear_0_5)"/>
<path fill-rule="evenodd" clip-rule="evenodd" d="M710.091 -268.048C771.613 -266.268 837.111 -283.335 889.396 -250.863C943.171 -217.465 969.848 -155.038 989.129 -94.7464C1008.33 -34.6961 1015.44 28.878 998.254 89.5368C980.597 151.859 943.252 206.693 892.371 246.785C839.985 288.063 776.145 325.826 710.091 316.596C646.261 307.677 616.923 233.282 561.413 200.538C496.273 162.114 392.609 177.816 359.531 109.809C327.103 43.1414 385.41 -32.0206 415.297 -99.8652C442.054 -160.605 465.433 -228.571 523.085 -261.462C578.62 -293.145 646.179 -269.897 710.091 -268.048Z" fill="url(#paint3_linear_0_5)"/>
<path fill-rule="evenodd" clip-rule="evenodd" d="M710.091 -268.048C771.613 -266.268 837.111 -283.335 889.396 -250.863C943.171 -217.465 969.848 -155.038 989.129 -94.7464C1008.33 -34.6961 1015.44 28.878 998.254 89.5368C980.597 151.859 943.252 206.693 892.371 246.785C839.985 288.063 776.145 325.826 710.091 316.596C646.261 307.677 616.923 233.282 561.413 200.538C496.273 162.114 392.609 177.816 359.531 109.809C327.103 43.1414 385.41 -32.0206 415.297 -99.8652C442.054 -160.605 465.433 -228.571 523.085 -261.462C578.62 -293.145 646.179 -269.897 710.091 -268.048Z" fill="url(#paint4_linear_0_5)"/>
</g>
<defs>
<filter id="filter0_f_0_5" x="0" y="-628" width="1358" height="1296" filterUnits="userSpaceOnUse" color-interpolation-filters="sRGB">
<feFlood flood-opacity="0" result="BackgroundImageFix"/>
<feBlend mode="normal" in="SourceGraphic" in2="BackgroundImageFix" result="shape"/>
<feGaussianBlur stdDeviation="175" result="effect1_foregroundBlur_0_5"/>
</filter>
<radialGradient id="paint0_radial_0_5" cx="0" cy="0" r="1" gradientUnits="userSpaceOnUse" gradientTransform="translate(759.738 -311.103) rotate(86.6995) scale(987.82 92942.4)">
<stop stop-color="#EE7C65"/>
<stop offset="0.21875" stop-color="#F7C39D"/>
<stop offset="0.395833" stop-color="#EAD899"/>
<stop offset="0.578125" stop-color="#87D5FF"/>
<stop offset="0.791667" stop-color="#9281F5"/>
<stop offset="1" stop-color="#FA5284"/>
</radialGradient>
<linearGradient id="paint1_linear_0_5" x1="350" y1="20" x2="966.354" y2="20" gradientUnits="userSpaceOnUse">
<stop stop-color="#FF48E2"/>
<stop offset="1" stop-color="#FF2936"/>
</linearGradient>
<linearGradient id="paint2_linear_0_5" x1="350" y1="28.5143" x2="779.582" y2="341.762" gradientUnits="userSpaceOnUse">
<stop stop-color="#FAA94D"/>
<stop offset="1" stop-color="#F27038"/>
</linearGradient>
<linearGradient id="paint3_linear_0_5" x1="350" y1="28.5143" x2="775.341" y2="343.092" gradientUnits="userSpaceOnUse">
<stop stop-color="#81A1FF"/>
<stop offset="1" stop-color="#5449E8"/>
</linearGradient>
<linearGradient id="paint4_linear_0_5" x1="350" y1="28.5143" x2="777.267" y2="342.496" gradientUnits="userSpaceOnUse">
<stop stop-color="#FF5B5B"/>
<stop offset="1" stop-color="#7544FF"/>
</linearGradient>
</defs>
</svg>
