<svg width="1009" height="1024" viewBox="0 0 1009 1024" fill="none" xmlns="http://www.w3.org/2000/svg">
<g filter="url(#filter0_f_0_7)">
<path fill-rule="evenodd" clip-rule="evenodd" d="M229.834 22.6696C321.893 8.59532 413.874 52.1276 488.918 107.282C563.67 162.223 621.555 239.18 646.136 328.64C670.018 415.559 659.913 509.59 621.919 591.33C586.69 667.121 513.354 712.004 445.358 760.596C377.97 808.754 312.232 863.136 229.834 871.528C142.16 880.458 45.7817 866.508 -20.1336 808.008C-84.0645 751.269 -81.9467 655.089 -106.351 573.165C-129.975 493.861 -186.106 415.765 -160.411 337.108C-134.724 258.474 -41.8646 230.481 22.5465 178.583C91.5598 122.975 142.227 36.0632 229.834 22.6696Z" fill="#FFBC57"/>
<path fill-rule="evenodd" clip-rule="evenodd" d="M229.834 22.6696C321.893 8.59532 413.874 52.1276 488.918 107.282C563.67 162.223 621.555 239.18 646.136 328.64C670.018 415.559 659.913 509.59 621.919 591.33C586.69 667.121 513.354 712.004 445.358 760.596C377.97 808.754 312.232 863.136 229.834 871.528C142.16 880.458 45.7817 866.508 -20.1336 808.008C-84.0645 751.269 -81.9467 655.089 -106.351 573.165C-129.975 493.861 -186.106 415.765 -160.411 337.108C-134.724 258.474 -41.8646 230.481 22.5465 178.583C91.5598 122.975 142.227 36.0632 229.834 22.6696Z" fill="url(#paint0_radial_0_7)"/>
<path fill-rule="evenodd" clip-rule="evenodd" d="M229.834 22.6696C321.893 8.59532 413.874 52.1276 488.918 107.282C563.67 162.223 621.555 239.18 646.136 328.64C670.018 415.559 659.913 509.59 621.919 591.33C586.69 667.121 513.354 712.004 445.358 760.596C377.97 808.754 312.232 863.136 229.834 871.528C142.16 880.458 45.7817 866.508 -20.1336 808.008C-84.0645 751.269 -81.9467 655.089 -106.351 573.165C-129.975 493.861 -186.106 415.765 -160.411 337.108C-134.724 258.474 -41.8646 230.481 22.5465 178.583C91.5598 122.975 142.227 36.0632 229.834 22.6696Z" fill="url(#paint1_linear_0_7)"/>
<path fill-rule="evenodd" clip-rule="evenodd" d="M229.834 22.6696C321.893 8.59532 413.874 52.1276 488.918 107.282C563.67 162.223 621.555 239.18 646.136 328.64C670.018 415.559 659.913 509.59 621.919 591.33C586.69 667.121 513.354 712.004 445.358 760.596C377.97 808.754 312.232 863.136 229.834 871.528C142.16 880.458 45.7817 866.508 -20.1336 808.008C-84.0645 751.269 -81.9467 655.089 -106.351 573.165C-129.975 493.861 -186.106 415.765 -160.411 337.108C-134.724 258.474 -41.8646 230.481 22.5465 178.583C91.5598 122.975 142.227 36.0632 229.834 22.6696Z" fill="url(#paint2_linear_0_7)"/>
<path fill-rule="evenodd" clip-rule="evenodd" d="M229.834 22.6696C321.893 8.59532 413.874 52.1276 488.918 107.282C563.67 162.223 621.555 239.18 646.136 328.64C670.018 415.559 659.913 509.59 621.919 591.33C586.69 667.121 513.354 712.004 445.358 760.596C377.97 808.754 312.232 863.136 229.834 871.528C142.16 880.458 45.7817 866.508 -20.1336 808.008C-84.0645 751.269 -81.9467 655.089 -106.351 573.165C-129.975 493.861 -186.106 415.765 -160.411 337.108C-134.724 258.474 -41.8646 230.481 22.5465 178.583C91.5598 122.975 142.227 36.0632 229.834 22.6696Z" fill="url(#paint3_linear_0_7)"/>
</g>
<defs>
<filter id="filter0_f_0_7" x="-517" y="-330" width="1526" height="1554" filterUnits="userSpaceOnUse" color-interpolation-filters="sRGB">
<feFlood flood-opacity="0" result="BackgroundImageFix"/>
<feBlend mode="normal" in="SourceGraphic" in2="BackgroundImageFix" result="shape"/>
<feGaussianBlur stdDeviation="175" result="effect1_foregroundBlur_0_7"/>
</filter>
<radialGradient id="paint0_radial_0_7" cx="0" cy="0" r="1" gradientUnits="userSpaceOnUse" gradientTransform="translate(347.352 -27.4323) rotate(87.1078) scale(1414.89 116717)">
<stop stop-color="#EE7C65"/>
<stop offset="0.21875" stop-color="#F7C39D"/>
<stop offset="0.395833" stop-color="#EAD899"/>
<stop offset="0.578125" stop-color="#87D5FF"/>
<stop offset="0.791667" stop-color="#9281F5"/>
<stop offset="1" stop-color="#FA5284"/>
</radialGradient>
<linearGradient id="paint1_linear_0_7" x1="-167" y1="447" x2="606.722" y2="447" gradientUnits="userSpaceOnUse">
<stop stop-color="#FF48E2"/>
<stop offset="1" stop-color="#FF2936"/>
</linearGradient>
<linearGradient id="paint2_linear_0_7" x1="-167" y1="459.2" x2="419.605" y2="833.94" gradientUnits="userSpaceOnUse">
<stop stop-color="#FAA94D"/>
<stop offset="1" stop-color="#F27038"/>
</linearGradient>
<linearGradient id="paint3_linear_0_7" x1="-167" y1="459.2" x2="414.762" y2="836.146" gradientUnits="userSpaceOnUse">
<stop stop-color="#81A1FF"/>
<stop offset="1" stop-color="#5449E8"/>
</linearGradient>
</defs>
</svg>
