<svg width="48" height="67" viewBox="0 0 48 67" fill="none" xmlns="http://www.w3.org/2000/svg">
<g clip-path="url(#clip0_0_63)">
<path d="M47.9749 33.5261C47.9749 29.0872 48.0375 24.6442 47.9162 20.2053C47.8928 19.4098 47.2903 18.3 46.6252 17.8983C37.0401 12.1308 27.408 6.43893 17.7446 0.802726C17.1656 0.464633 16.0819 0.4527 15.5068 0.782838C10.7298 3.49554 5.99596 6.28778 1.31294 9.16754C0.686969 9.55336 0.0570885 10.5557 0.0570885 11.2796C-0.0133329 25.9926 -0.0133329 40.7056 0.0570885 55.4186C0.0610008 56.1505 0.636109 57.1767 1.25425 57.5586C5.93336 60.4423 10.7064 63.1669 15.405 66.0188C16.3401 66.5876 16.9856 66.5041 17.8737 65.9751C27.4236 60.2752 36.9892 54.6032 46.5822 48.971C47.6267 48.3585 48.0258 47.6664 48.0062 46.4532C47.9397 42.1415 47.9749 37.8338 47.9749 33.5261ZM39.5987 42.0063C39.5909 42.591 39.141 43.4223 38.6519 43.7166C31.6411 47.9408 24.5989 52.1133 17.5255 56.2301C17.0404 56.5125 16.1366 56.4767 15.6241 56.2022C13.6015 55.1322 11.6923 53.8395 9.67352 52.7656C8.5859 52.1849 8.28074 51.4331 8.28857 50.2398C8.34334 44.6036 8.31204 38.9635 8.31204 33.3273C8.31595 33.3273 8.31595 33.3273 8.31987 33.3273C8.31987 27.691 8.269 22.0509 8.37855 16.4147C8.3942 15.6271 9.01234 14.585 9.6657 14.1236C11.5397 12.811 13.5428 11.6734 15.5733 10.6194C16.1327 10.329 17.1147 10.3131 17.6507 10.6233C24.6772 14.6884 31.6685 18.8171 38.6284 23.0015C39.1214 23.2958 39.583 24.1152 39.5909 24.6959C39.6652 30.4674 39.6691 36.2388 39.5987 42.0063Z" fill="white"/>
<path d="M25.0391 24.6981C27.1361 25.9391 28.9357 26.9693 30.6923 28.075C31.0171 28.2779 31.334 28.787 31.3418 29.1609C31.3966 31.9412 31.3966 34.7255 31.3496 37.5098C31.3418 37.8996 31.0836 38.4485 30.7745 38.6434C28.9709 39.781 27.1165 40.8351 25.0352 42.0641C25.0391 36.1813 25.0391 30.6485 25.0391 24.6981Z" fill="white"/>
</g>
<defs>
<clipPath id="clip0_0_63">
<rect width="48" height="65.8605" fill="white" transform="translate(0 0.546509)"/>
</clipPath>
</defs>
</svg>
